<svg width="23" height="24" fill="none" xmlns="http://www.w3.org/2000/svg"><path fill-rule="evenodd" clip-rule="evenodd" d="M22.12 6.667h-3.746a7.98 7.98 0 00-2.426-2.614L18.12 1.88 16.24 0l-2.893 2.893a8.087 8.087 0 00-1.894-.226c-.653 0-1.28.08-1.88.226L6.668 0l-1.88 1.88 2.16 2.173a8.083 8.083 0 00-2.414 2.614H.788v2.666h2.786c-.066.44-.12.88-.12 1.334V12H.788v2.667h2.666V16c0 .453.054.893.12 1.333H.788V20h3.746c1.387 2.387 3.96 4 6.92 4s5.534-1.613 6.92-4h3.747v-2.667h-2.787c.067-.44.12-.88.12-1.333v-1.333h2.667V12h-2.667v-1.333c0-.454-.053-.894-.12-1.334h2.787V6.667zM16.789 12v4a5.6 5.6 0 01-.094.933l-.133.867-.493.867a5.341 5.341 0 01-4.614 2.666 5.37 5.37 0 01-4.613-2.666l-.493-.854-.134-.866A5.694 5.694 0 016.121 16v-5.333c0-.307.04-.64.093-.934l.134-.866L6.84 8a5.48 5.48 0 011.613-1.747l.76-.52.987-.24a5.05 5.05 0 012.52 0l.907.214.813.56a5.193 5.193 0 011.613 1.746l.507.867.133.867c.054.293.094.626.094.92V12zm-8 2.667h5.333v2.666H8.788v-2.666zm0-5.334h5.333V12H8.788V9.333z" fill="#1D1D1D"/></svg>