<svg width="119" height="119" fill="none" xmlns="http://www.w3.org/2000/svg"><path d="M49.694 54.735a6.963 6.963 0 00-9.834.24 6.963 6.963 0 00.24 9.834 6.964 6.964 0 009.834-.24 6.963 6.963 0 00-.24-9.834zm-7.195 7.556a3.48 3.48 0 01-.12-4.917 3.48 3.48 0 014.916-.12 3.48 3.48 0 01.12 4.916 3.48 3.48 0 01-4.916.12zm-13.253-9.516l.361 14.75-3.476.085-.36-14.75 3.476-.085zm81.282 12.046c.997-.025 1.967-.391 3.192-1.678 3.178-3.337 3.138-6.878-.109-9.97-1.357-1.292-2.364-1.6-3.454-1.563.13-.255.221-.532.222-.819-.035-.921-.878-1.724-1.788-1.702a1.817 1.817 0 00-1.216.546 1.79 1.79 0 00-.487 1.242c.021.392.191.77.442 1.069-.581.03-1.287.015-2.168-.088.179-.289.299-.607.301-.946-.035-.922-.905-1.726-1.789-1.703a1.788 1.788 0 00-1.216.546 1.82 1.82 0 00-.486 1.242c.011.225.066.447.157.654a17.36 17.36 0 00-1.787.17 1.84 1.84 0 00.203-.79c-.023-.91-.879-1.725-1.788-1.703-.455.023-.904.22-1.216.547-.324.34-.486.786-.486 1.242.022.454.219.905.546 1.217.058.055.139.081.203.128-.707.265-1.357.597-1.862 1.032-.319.277-.54.563-.718.85l-29.746.727c-.774-3.534-2.414-6.812-4.932-9.21-6.565-6.252-11.711-2.852-14.477-1.026-.546.36-1.296.856-1.515.907-.927.023-2.934-1.29-4.706-2.45-5.51-3.612-13.842-9.068-22.39-.092-7.855 8.249-7.406 26.61.843 34.466 8.976 8.547 17.03 2.691 22.36-1.185 1.71-1.245 3.652-2.656 4.527-2.68.273.04 1.046.498 1.609.832 2.853 1.69 8.159 4.834 14.41-1.73 2.398-2.52 3.875-5.872 4.476-9.442l29.734-.724a3.615 3.615 0 00.775.812c.523.41 1.188.71 1.906.939-.062.05-.141.08-.196.138a1.82 1.82 0 00-.486 1.241c.022.454.219.905.546 1.217.327.312.787.485 1.242.486a1.826 1.826 0 001.216-.546c.312-.328.485-.787.486-1.242-.006-.28-.11-.54-.252-.778.642.064 1.245.083 1.8.08-.08.213-.121.436-.122.663.022.453.219.905.547 1.217.327.311.786.485 1.241.486a1.829 1.829 0 001.217-.546c.312-.328.485-.787.486-1.242-.013-.344-.162-.65-.361-.925a12.002 12.002 0 012.162-.177c-.234.313-.376.68-.375 1.067.022.453.219.905.546 1.217a1.83 1.83 0 001.242.486 1.83 1.83 0 001.217-.547c.311-.327.485-.786.486-1.241a1.652 1.652 0 00-.212-.72zm-61.957 6.82c-1.216-.72-2.268-1.343-3.416-1.315-2.01.049-4.01 1.504-6.54 3.343-5.174 3.762-11.039 8.027-17.915 1.478-6.931-6.6-7.323-22.618-.723-29.55 6.55-6.877 12.616-2.904 17.968.603 2.617 1.715 4.683 3.067 6.694 3.018 1.148-.028 2.167-.7 3.346-1.479 2.755-1.82 5.603-3.702 10.163.64 5.613 5.346 5.886 16.511.54 22.125-4.342 4.56-7.278 2.82-10.117 1.137zm17.41-11.664c.004-.48-.01-.959-.036-1.44l28.822-.705.035 1.44-28.822.705zm43.756 1.3c-1.147-.18-2.88-.453-6.1.274-1.056.238-4.618-.023-5.32-.763l-.113-4.644c.648-.739 4.207-1.206 5.274-1.02 3.172.554 4.909.253 6.057.054.966-.165.966-.165 1.677.513 1.836 1.748 1.833 3.118-.01 5.054-.633.665-.633.665-1.465.532z" fill="#000"/></svg>