<svg width="23" height="23" fill="none" xmlns="http://www.w3.org/2000/svg"><path d="M11.56 5.55a5.633 5.633 0 00-5.642 5.64c0 3.122 2.52 5.64 5.642 5.64a5.633 5.633 0 005.643-5.64c0-3.122-2.52-5.64-5.643-5.64zm0 9.307a3.674 3.674 0 01-3.668-3.667 3.671 3.671 0 013.668-3.667 3.671 3.671 0 013.669 3.667 3.674 3.674 0 01-3.669 3.667zm7.19-9.538c0 .731-.59 1.315-1.316 1.315a1.316 1.316 0 111.316-1.316zm3.737 1.335c-.084-1.762-.486-3.323-1.778-4.61C19.422.758 17.861.356 16.098.267c-1.817-.103-7.263-.103-9.08 0C5.26.351 3.698.753 2.407 2.04 1.115 3.326.717 4.887.629 6.65c-.103 1.816-.103 7.26 0 9.077.084 1.762.486 3.323 1.778 4.61 1.291 1.286 2.848 1.688 4.61 1.777 1.818.103 7.264.103 9.08 0 1.764-.084 3.325-.486 4.612-1.777 1.287-1.287 1.69-2.848 1.778-4.61.103-1.816.103-7.256 0-9.072zm-2.348 11.02a3.713 3.713 0 01-2.092 2.092c-1.448.574-4.886.442-6.487.442-1.6 0-5.043.128-6.487-.442a3.713 3.713 0 01-2.092-2.091c-.574-1.448-.442-4.885-.442-6.485 0-1.6-.127-5.042.442-6.485a3.713 3.713 0 012.092-2.091c1.449-.575 4.886-.442 6.487-.442s5.044-.128 6.487.442a3.713 3.713 0 012.092 2.091c.575 1.448.442 4.885.442 6.485 0 1.6.133 5.042-.442 6.485z" fill="#222"/></svg>