<svg width="67" height="55" fill="none" xmlns="http://www.w3.org/2000/svg"><g stroke="#000" stroke-width="4" stroke-linecap="round" stroke-linejoin="round"><path clip-rule="evenodd" d="M63.775 2.411H3.431c-.595 0-1.078.486-1.078 1.087v47.826c0 .602.483 1.087 1.078 1.087h60.344c.595 0 1.078-.486 1.078-1.087V3.498c0-.6-.483-1.087-1.078-1.087z"/><path clip-rule="evenodd" d="M41.864 28.036l-13.261 9.375v-18.75l13.26 9.375z"/><path d="M64.853 2.411h-12.5v12.5h12.5v-12.5zm-50 0h-12.5v12.5h12.5v-12.5zm50 12.5h-12.5v12.5h12.5v-12.5zm-50 0h-12.5v12.5h12.5v-12.5zm50 12.5h-12.5v12.5h12.5v-12.5zm-50 0h-12.5v12.5h12.5v-12.5zm50 12.5h-12.5v12.5h12.5v-12.5zm-50 0h-12.5v12.5h12.5v-12.5z"/></g></svg>