<svg width="425" height="424" fill="none" xmlns="http://www.w3.org/2000/svg"><g clip-path="url(#clip0)"><path d="M230.188 8.579C336.096 9.652 421.62 95.839 421.62 202c0 57.499-25.086 109.136-64.916 144.569L230.188 201.251V8.579z" stroke="#222" stroke-width="4"/><path d="M299.265 158.688c2.336 0 4.08-.512 5.232-1.536 1.184-1.056 1.776-2.4 1.776-4.032v-.336c0-1.792-.576-3.136-1.728-4.032-1.12-.896-2.592-1.344-4.416-1.344-1.792 0-3.248.4-4.368 1.2-1.088.768-1.984 1.792-2.688 3.072l-3.024-2.304c.416-.672.928-1.328 1.536-1.968a10.361 10.361 0 012.112-1.776 12.04 12.04 0 012.832-1.248c1.088-.32 2.32-.48 3.696-.48 1.44 0 2.784.192 4.032.576 1.248.352 2.336.896 3.264 1.632a7.22 7.22 0 012.16 2.64c.544 1.056.816 2.256.816 3.6 0 1.088-.176 2.064-.528 2.928a6.525 6.525 0 01-1.392 2.256 8.023 8.023 0 01-2.064 1.632c-.8.448-1.648.784-2.544 1.008v.192a10.39 10.39 0 012.688.96 7.902 7.902 0 012.304 1.68c.672.672 1.2 1.504 1.584 2.496.416.96.624 2.064.624 3.312 0 1.44-.288 2.768-.864 3.984a8.775 8.775 0 01-2.352 3.072c-.992.832-2.208 1.488-3.648 1.968-1.408.48-2.976.72-4.704.72-1.472 0-2.784-.16-3.936-.48a12.313 12.313 0 01-3.024-1.296 13.149 13.149 0 01-2.304-1.824 17.806 17.806 0 01-1.728-2.112l3.024-2.304c.448.672.912 1.28 1.392 1.824a8.774 8.774 0 001.632 1.44c.64.384 1.36.688 2.16.912.8.224 1.728.336 2.784.336 2.368 0 4.176-.544 5.424-1.632 1.28-1.088 1.92-2.64 1.92-4.656v-.384c0-1.984-.624-3.52-1.872-4.608-1.216-1.088-3.056-1.632-5.52-1.632h-3.984v-3.456h3.696zm30.221 19.872c-2.048 0-3.808-.384-5.28-1.152-1.472-.8-2.688-1.936-3.648-3.408s-1.664-3.28-2.112-5.424c-.448-2.144-.672-4.592-.672-7.344 0-2.72.224-5.152.672-7.296.448-2.176 1.152-4 2.112-5.472.96-1.472 2.176-2.592 3.648-3.36 1.472-.8 3.232-1.2 5.28-1.2s3.808.4 5.28 1.2c1.472.768 2.688 1.888 3.648 3.36s1.664 3.296 2.112 5.472c.448 2.144.672 4.576.672 7.296 0 2.752-.224 5.2-.672 7.344-.448 2.144-1.152 3.952-2.112 5.424-.96 1.472-2.176 2.608-3.648 3.408-1.472.768-3.232 1.152-5.28 1.152zm0-3.504c1.344 0 2.496-.256 3.456-.768a6.23 6.23 0 002.304-2.256c.608-.96 1.056-2.112 1.344-3.456.288-1.376.432-2.912.432-4.608v-5.472c0-1.664-.144-3.184-.432-4.56-.288-1.376-.736-2.544-1.344-3.504a5.872 5.872 0 00-2.304-2.208c-.96-.544-2.112-.816-3.456-.816-1.344 0-2.496.272-3.456.816-.96.512-1.744 1.248-2.352 2.208-.576.96-1.008 2.128-1.296 3.504-.288 1.376-.432 2.896-.432 4.56v5.472c0 1.696.144 3.232.432 4.608.288 1.344.72 2.496 1.296 3.456a6.611 6.611 0 002.352 2.256c.96.512 2.112.768 3.456.768zm0-10.992c-1.12 0-1.904-.224-2.352-.672-.416-.448-.624-.992-.624-1.632v-1.056c0-.64.208-1.184.624-1.632.448-.448 1.232-.672 2.352-.672 1.12 0 1.888.224 2.304.672.448.448.672.992.672 1.632v1.056c0 .64-.224 1.184-.672 1.632-.416.448-1.184.672-2.304.672zm17.086 8.224c-.704 0-1.28-.235-1.728-.704-.438-.48-.656-1.189-.656-2.128 0-.939.218-1.643.656-2.112.448-.48 1.024-.72 1.728-.72s1.274.24 1.712.72c.448.469.672 1.173.672 2.112 0 .939-.224 1.648-.672 2.128-.438.469-1.008.704-1.712.704zm0-.864c.384 0 .693-.133.928-.4.245-.267.368-.656.368-1.168v-.8c0-.512-.123-.901-.368-1.168-.235-.267-.544-.4-.928-.4s-.699.133-.944.4c-.235.267-.352.656-.352 1.168v.8c0 .512.117.901.352 1.168.245.267.56.4.944.4zm5.456-4.608h1.152l-2.56 4.8h-1.152l2.56-4.8zm-5.312 6.368h1.152l-2.56 4.8h-1.152l2.56-4.8zm4.048 4.992c-.704 0-1.28-.235-1.728-.704-.438-.48-.656-1.189-.656-2.128 0-.939.218-1.643.656-2.112.448-.48 1.024-.72 1.728-.72s1.274.24 1.712.72c.448.469.672 1.173.672 2.112 0 .939-.224 1.648-.672 2.128-.438.469-1.008.704-1.712.704zm0-.864c.384 0 .693-.133.928-.4.245-.267.368-.656.368-1.168v-.8c0-.512-.123-.901-.368-1.168-.235-.267-.544-.4-.928-.4s-.699.133-.944.4c-.235.267-.352.656-.352 1.168v.8c0 .512.117.901.352 1.168.245.267.56.4.944.4zm-62.859 9.504h3.04c1.355 0 2.352.475 2.992 1.424.651.939.976 2.325.976 4.16 0 1.845-.325 3.237-.976 4.176-.64.939-1.637 1.408-2.992 1.408h-3.04v-11.168zm3.008 10.336c1.014 0 1.76-.352 2.24-1.056.491-.715.736-1.707.736-2.976v-1.44c0-1.269-.245-2.256-.736-2.96-.48-.715-1.226-1.072-2.24-1.072h-2.048v9.504h2.048zm9.914 1.024c-1.152 0-2.059-.373-2.72-1.12-.651-.757-.976-1.819-.976-3.184 0-.683.085-1.291.256-1.824.171-.544.411-.997.72-1.36.32-.373.704-.656 1.152-.848a3.564 3.564 0 011.488-.304c.555 0 1.051.101 1.488.304.437.192.805.469 1.104.832.309.363.544.795.704 1.296.16.501.24 1.056.24 1.664v.4h-6.192v.4c0 .885.24 1.6.72 2.144.48.533 1.152.8 2.016.8.608 0 1.125-.139 1.552-.416.437-.277.773-.688 1.008-1.232l.688.432a3.165 3.165 0 01-1.2 1.472c-.555.363-1.237.544-2.048.544zm-.08-7.872a2.66 2.66 0 00-1.104.224 2.43 2.43 0 00-.832.592 2.81 2.81 0 00-.528.928 3.587 3.587 0 00-.192 1.2v.096h5.216v-.128c0-.896-.229-1.605-.688-2.128-.448-.523-1.072-.784-1.872-.784zm9.722 7.872c-.832 0-1.558-.139-2.176-.416a4.835 4.835 0 01-1.584-1.2l.624-.544c.405.469.858.821 1.36 1.056.501.224 1.098.336 1.792.336.725 0 1.312-.139 1.76-.416.458-.277.688-.704.688-1.28 0-.256-.048-.464-.144-.624a1.07 1.07 0 00-.368-.416 1.766 1.766 0 00-.56-.24 4.33 4.33 0 00-.704-.144l-1.28-.176c-.32-.043-.646-.101-.976-.176a3.385 3.385 0 01-.88-.368 2.026 2.026 0 01-.64-.64c-.16-.267-.24-.608-.24-1.024 0-.405.08-.757.24-1.056.16-.299.384-.544.672-.736a3.2 3.2 0 011.008-.432 5.331 5.331 0 011.264-.144c.768 0 1.413.128 1.936.384.533.245.981.555 1.344.928l-.608.576a3.75 3.75 0 00-.416-.384 2.229 2.229 0 00-.56-.368 3.261 3.261 0 00-.752-.256 3.955 3.955 0 00-.992-.112c-.704 0-1.254.128-1.648.384-.384.256-.576.64-.576 1.152 0 .256.042.469.128.64.096.16.224.293.384.4.16.107.346.192.56.256.213.053.442.096.688.128l1.296.192c.32.053.64.123.96.208.33.075.624.192.88.352.266.16.48.373.64.64.16.256.24.592.24 1.008a2.223 2.223 0 01-.944 1.872c-.288.213-.64.373-1.056.48-.416.107-.87.16-1.36.16zm9.929-10.656c-.288 0-.496-.059-.624-.176a.664.664 0 01-.176-.464v-.208c0-.181.059-.331.176-.448.128-.128.336-.192.624-.192s.491.064.608.192a.581.581 0 01.192.448v.208a.633.633 0 01-.192.464c-.117.117-.32.176-.608.176zm-3.552 9.68h3.104v-6.688h-3.104v-.784h4.016v7.472h2.896v.784h-6.912v-.784zm16.698 1.76c0 .832-.341 1.44-1.024 1.824-.682.395-1.685.592-3.008.592-1.28 0-2.202-.181-2.768-.544-.565-.363-.848-.869-.848-1.52 0-.469.128-.843.384-1.12.256-.267.614-.469 1.072-.608v-.128c-.522-.203-.784-.576-.784-1.12 0-.405.139-.715.416-.928a2.712 2.712 0 011.024-.496v-.064a2.553 2.553 0 01-1.152-.96c-.266-.427-.4-.939-.4-1.536 0-.416.07-.795.208-1.136.15-.352.352-.651.608-.896.267-.256.587-.448.96-.576a3.56 3.56 0 011.248-.208c.662 0 1.227.139 1.696.416v-.336c0-.256.059-.459.176-.608.128-.16.331-.24.608-.24h1.616v.8h-1.888v.752c.267.245.47.539.608.88.15.341.224.725.224 1.152 0 .416-.074.795-.224 1.136-.138.341-.341.64-.608.896a2.878 2.878 0 01-.96.576 3.828 3.828 0 01-1.248.192c-.149 0-.288-.005-.416-.016a3.388 3.388 0 01-.416-.064c-.341.085-.64.213-.896.384s-.384.4-.384.688c0 .48.448.72 1.344.72h1.968c1.003 0 1.728.192 2.176.576.459.373.688.88.688 1.52zm-.864.032c0-.395-.149-.709-.448-.944-.288-.224-.805-.336-1.552-.336h-2.704c-.373.117-.666.288-.88.512-.202.235-.304.539-.304.912 0 .437.176.795.528 1.072.363.288.907.432 1.632.432h1.072c.822 0 1.467-.139 1.936-.416.48-.267.72-.677.72-1.232zm-3.2-4.56c.694 0 1.211-.171 1.552-.512.352-.341.528-.779.528-1.312v-.528c0-.544-.176-.981-.528-1.312-.341-.341-.858-.512-1.552-.512-.682 0-1.2.171-1.552.512-.341.331-.512.768-.512 1.312v.528c0 .533.176.971.528 1.312.352.341.864.512 1.536.512zm6.538 3.552v-8.256h.912v1.28h.064c.16-.384.427-.725.8-1.024.384-.299.923-.448 1.616-.448.896 0 1.589.272 2.08.816.501.533.752 1.301.752 2.304v5.328h-.912v-5.168c0-.853-.187-1.477-.56-1.872-.363-.395-.896-.592-1.6-.592a3.06 3.06 0 00-.832.112 2.357 2.357 0 00-.72.336 1.726 1.726 0 00-.496.576 1.587 1.587 0 00-.192.8v5.808h-.912zm12.778.192c-1.152 0-2.059-.373-2.72-1.12-.651-.757-.976-1.819-.976-3.184 0-.683.085-1.291.256-1.824.17-.544.41-.997.72-1.36.32-.373.704-.656 1.152-.848a3.564 3.564 0 011.488-.304c.554 0 1.05.101 1.488.304.437.192.805.469 1.104.832.309.363.544.795.704 1.296.16.501.24 1.056.24 1.664v.4h-6.192v.4c0 .885.24 1.6.72 2.144.48.533 1.152.8 2.016.8.608 0 1.125-.139 1.552-.416.437-.277.773-.688 1.008-1.232l.688.432a3.177 3.177 0 01-1.2 1.472c-.555.363-1.238.544-2.048.544zm-.08-7.872c-.406 0-.774.075-1.104.224-.32.139-.598.336-.832.592a2.81 2.81 0 00-.528.928 3.587 3.587 0 00-.192 1.2v.096h5.216v-.128c0-.896-.23-1.605-.688-2.128-.448-.523-1.072-.784-1.872-.784zm5.993 6.896h2.592v-6.688h-2.592v-.784h3.504v1.888h.064c.182-.576.491-1.035.928-1.376.448-.341 1.035-.512 1.76-.512h1.424v.896h-1.696c-.746 0-1.349.224-1.808.672-.448.437-.672 1.029-.672 1.776v4.128h3.36v.784h-6.864v-.784z" fill="#222"/><g clip-path="url(#clip1)"><path d="M209.575 211.999v.748l.491.565L347.58 371.263c-36.593 31.279-84.091 50.166-136.005 50.166-115.665 0-209.43-93.765-209.43-209.43 0-114.998 92.686-208.347 207.43-209.42v209.42z" stroke="#222" stroke-width="4"/><path d="M95.695 223.984l13.104-30.048H94.111v6.24h-3.6v-9.696h22.368v3.552l-12.864 29.952h-4.32zm34.877.576c-2.048 0-3.808-.384-5.28-1.152-1.472-.8-2.688-1.936-3.648-3.408s-1.664-3.28-2.112-5.424c-.448-2.144-.672-4.592-.672-7.344 0-2.72.224-5.152.672-7.296.448-2.176 1.152-4 2.112-5.472.96-1.472 2.176-2.592 3.648-3.36 1.472-.8 3.232-1.2 5.28-1.2s3.808.4 5.28 1.2c1.472.768 2.688 1.888 3.648 3.36s1.664 3.296 2.112 5.472c.448 2.144.672 4.576.672 7.296 0 2.752-.224 5.2-.672 7.344-.448 2.144-1.152 3.952-2.112 5.424-.96 1.472-2.176 2.608-3.648 3.408-1.472.768-3.232 1.152-5.28 1.152zm0-3.504c1.344 0 2.496-.256 3.456-.768a6.23 6.23 0 002.304-2.256c.608-.96 1.056-2.112 1.344-3.456.288-1.376.432-2.912.432-4.608v-5.472c0-1.664-.144-3.184-.432-4.56-.288-1.376-.736-2.544-1.344-3.504a5.872 5.872 0 00-2.304-2.208c-.96-.544-2.112-.816-3.456-.816-1.344 0-2.496.272-3.456.816-.96.512-1.744 1.248-2.352 2.208-.576.96-1.008 2.128-1.296 3.504-.288 1.376-.432 2.896-.432 4.56v5.472c0 1.696.144 3.232.432 4.608.288 1.344.72 2.496 1.296 3.456a6.611 6.611 0 002.352 2.256c.96.512 2.112.768 3.456.768zm0-10.992c-1.12 0-1.904-.224-2.352-.672-.416-.448-.624-.992-.624-1.632v-1.056c0-.64.208-1.184.624-1.632.448-.448 1.232-.672 2.352-.672 1.12 0 1.888.224 2.304.672.448.448.672.992.672 1.632v1.056c0 .64-.224 1.184-.672 1.632-.416.448-1.184.672-2.304.672zm17.085 8.224c-.704 0-1.28-.235-1.728-.704-.437-.48-.656-1.189-.656-2.128 0-.939.219-1.643.656-2.112.448-.48 1.024-.72 1.728-.72s1.275.24 1.712.72c.448.469.672 1.173.672 2.112 0 .939-.224 1.648-.672 2.128-.437.469-1.008.704-1.712.704zm0-.864c.384 0 .693-.133.928-.4.245-.267.368-.656.368-1.168v-.8c0-.512-.123-.901-.368-1.168-.235-.267-.544-.4-.928-.4s-.699.133-.944.4c-.235.267-.352.656-.352 1.168v.8c0 .512.117.901.352 1.168.245.267.56.4.944.4zm5.456-4.608h1.152l-2.56 4.8h-1.152l2.56-4.8zm-5.312 6.368h1.152l-2.56 4.8h-1.152l2.56-4.8zm4.048 4.992c-.704 0-1.28-.235-1.728-.704-.437-.48-.656-1.189-.656-2.128 0-.939.219-1.643.656-2.112.448-.48 1.024-.72 1.728-.72s1.275.24 1.712.72c.448.469.672 1.173.672 2.112 0 .939-.224 1.648-.672 2.128-.437.469-1.008.704-1.712.704zm0-.864c.384 0 .693-.133.928-.4.245-.267.368-.656.368-1.168v-.8c0-.512-.123-.901-.368-1.168-.235-.267-.544-.4-.928-.4s-.699.133-.944.4c-.235.267-.352.656-.352 1.168v.8c0 .512.117.901.352 1.168.245.267.56.4.944.4zm-63.018 20.672v-11.168h7.04v1.168h-5.696v3.76h5.216v1.168h-5.216v5.072H88.83zm9.385-1.088h2.416v-6.08h-2.416v-1.088h3.696v2.08h.08c.171-.651.491-1.157.96-1.52.48-.373 1.088-.56 1.824-.56h1.152v1.28h-1.552c-.736 0-1.333.213-1.792.64-.448.427-.672.987-.672 1.68v3.568h3.2v1.088h-6.896v-1.088zm13.162 1.28a3.909 3.909 0 01-1.568-.304 3.405 3.405 0 01-1.184-.864 4.077 4.077 0 01-.736-1.36 5.854 5.854 0 01-.256-1.792c0-.651.085-1.243.256-1.776.171-.533.416-.987.736-1.36a3.315 3.315 0 011.184-.88 3.909 3.909 0 011.568-.304c.576 0 1.093.101 1.552.304.469.203.864.496 1.184.88.331.373.581.827.752 1.36.171.533.256 1.125.256 1.776 0 .661-.085 1.259-.256 1.792a3.92 3.92 0 01-.752 1.36c-.32.373-.715.661-1.184.864a3.797 3.797 0 01-1.552.304zm0-1.104c.715 0 1.291-.213 1.728-.64.437-.427.656-1.088.656-1.984v-1.184c0-.896-.219-1.557-.656-1.984-.437-.427-1.013-.64-1.728-.64-.715 0-1.291.213-1.728.64-.437.427-.656 1.088-.656 1.984v1.184c0 .896.219 1.557.656 1.984.437.427 1.013.64 1.728.64zm6.362.912v-8.256h1.28v1.344h.064c.085-.203.192-.395.32-.576.128-.192.283-.357.464-.496.192-.139.416-.251.672-.336.256-.085.555-.128.896-.128.864 0 1.557.277 2.08.832.523.544.784 1.317.784 2.32v5.296h-1.28v-5.072c0-.757-.165-1.317-.496-1.68-.331-.373-.816-.56-1.456-.56-.256 0-.507.032-.752.096s-.464.16-.656.288a1.47 1.47 0 00-.464.496 1.383 1.383 0 00-.176.704v5.728h-1.28zm13.226 0c-.63 0-1.094-.176-1.392-.528-.288-.352-.432-.805-.432-1.36v-5.28h-2.752v-1.088h2.048c.277 0 .469-.053.576-.16.117-.117.176-.315.176-.592v-2.16h1.232v2.912h3.76v1.088h-3.76v6.08h3.76v1.088h-3.216zm6.873-4.192v-1.344h4.64v1.344h-4.64zm8.554 4.192v-11.168h6.88v1.168h-5.536v3.76h5.344v1.168h-5.344v3.904h5.536v1.168h-6.88zm9.722 0v-8.256h1.28v1.344h.064c.085-.203.192-.395.32-.576.128-.192.283-.357.464-.496.192-.139.416-.251.672-.336.256-.085.555-.128.896-.128.864 0 1.557.277 2.08.832.523.544.784 1.317.784 2.32v5.296h-1.28v-5.072c0-.757-.165-1.317-.496-1.68-.331-.373-.816-.56-1.456-.56-.256 0-.507.032-.752.096s-.464.16-.656.288a1.47 1.47 0 00-.464.496 1.383 1.383 0 00-.176.704v5.728h-1.28zm14.826-1.344h-.064c-.534 1.024-1.382 1.536-2.544 1.536-1.014 0-1.808-.379-2.384-1.136-.566-.757-.848-1.819-.848-3.184 0-1.365.282-2.427.848-3.184.576-.757 1.37-1.136 2.384-1.136 1.162 0 2.01.512 2.544 1.536h.064v-4.928h1.28v11.84h-1.28v-1.344zm-2.112.4c.288 0 .56-.037.816-.112.256-.075.48-.181.672-.32a1.62 1.62 0 00.448-.528c.117-.213.176-.459.176-.736v-2.976c0-.277-.059-.517-.176-.72a1.44 1.44 0 00-.448-.528 2.001 2.001 0 00-.672-.336 2.889 2.889 0 00-.816-.112c-.747 0-1.328.229-1.744.688-.406.448-.608 1.045-.608 1.792v1.408c0 .747.202 1.349.608 1.808.416.448.997.672 1.744.672zm-79.918 9.776h3.12c1.365 0 2.384.469 3.056 1.408.672.939 1.008 2.331 1.008 4.176 0 1.845-.336 3.237-1.008 4.176-.672.939-1.691 1.408-3.056 1.408h-3.12v-11.168zm3.056 10c.896 0 1.568-.309 2.016-.928.458-.619.688-1.493.688-2.624v-1.728c0-1.131-.23-2.005-.688-2.624-.448-.619-1.12-.928-2.016-.928h-1.712v8.832h1.712zm9.961 1.36a4.112 4.112 0 01-1.616-.304 3.528 3.528 0 01-1.216-.864 4.133 4.133 0 01-.768-1.36 5.487 5.487 0 01-.272-1.776c0-.661.091-1.259.272-1.792.192-.533.454-.987.784-1.36a3.323 3.323 0 011.184-.88c.47-.203.987-.304 1.552-.304.555 0 1.056.101 1.504.304.459.203.848.485 1.168.848.32.352.566.773.736 1.264.171.491.256 1.029.256 1.616v.608H99.4v.384c0 .363.059.699.176 1.008.118.309.283.576.496.8.224.224.491.4.8.528.32.117.672.176 1.056.176.555 0 1.035-.128 1.44-.384.406-.256.715-.608.928-1.056l.944.64c-.245.555-.656 1.013-1.232 1.376-.565.352-1.258.528-2.08.528zm-.08-7.584a2.453 2.453 0 00-1.76.72 2.581 2.581 0 00-.512.8 2.69 2.69 0 00-.176.992v.112h4.736v-.176c0-.363-.058-.693-.176-.992a2.128 2.128 0 00-.464-.768 1.848 1.848 0 00-.72-.512 2.362 2.362 0 00-.928-.176zm8.714 7.392l-2.96-8.256h1.296l1.184 3.456 1.28 3.728h.064l1.28-3.728 1.184-3.456h1.264l-2.96 8.256h-1.632zm10.554.192a4.112 4.112 0 01-1.616-.304 3.527 3.527 0 01-1.216-.864 4.122 4.122 0 01-.768-1.36 5.498 5.498 0 01-.272-1.776c0-.661.091-1.259.272-1.792.192-.533.453-.987.784-1.36a3.315 3.315 0 011.184-.88 3.868 3.868 0 011.552-.304c.555 0 1.056.101 1.504.304.459.203.848.485 1.168.848.32.352.565.773.736 1.264.171.491.256 1.029.256 1.616v.608h-6.112v.384c0 .363.059.699.176 1.008.117.309.283.576.496.8.224.224.491.4.8.528.32.117.672.176 1.056.176.555 0 1.035-.128 1.44-.384s.715-.608.928-1.056l.944.64c-.245.555-.656 1.013-1.232 1.376-.565.352-1.259.528-2.08.528zm-.08-7.584a2.453 2.453 0 00-1.76.72 2.582 2.582 0 00-.512.8 2.698 2.698 0 00-.176.992v.112h4.736v-.176c0-.363-.059-.693-.176-.992a2.142 2.142 0 00-.464-.768 1.848 1.848 0 00-.72-.512 2.365 2.365 0 00-.928-.176zm6.01 6.304h2.88v-9.664h-2.88v-1.088h4.16v10.752h2.88v1.088h-7.04v-1.088zm13.113 1.28a3.912 3.912 0 01-1.568-.304 3.415 3.415 0 01-1.184-.864 4.077 4.077 0 01-.736-1.36 5.884 5.884 0 01-.256-1.792c0-.651.086-1.243.256-1.776.171-.533.416-.987.736-1.36a3.323 3.323 0 011.184-.88c.47-.203.992-.304 1.568-.304.576 0 1.094.101 1.552.304.47.203.864.496 1.184.88.331.373.582.827.752 1.36.171.533.256 1.125.256 1.776 0 .661-.085 1.259-.256 1.792-.17.523-.421.976-.752 1.36-.32.373-.714.661-1.184.864a3.794 3.794 0 01-1.552.304zm0-1.104c.715 0 1.291-.213 1.728-.64.438-.427.656-1.088.656-1.984v-1.184c0-.896-.218-1.557-.656-1.984-.437-.427-1.013-.64-1.728-.64-.714 0-1.29.213-1.728.64-.437.427-.656 1.088-.656 1.984v1.184c0 .896.219 1.557.656 1.984.438.427 1.014.64 1.728.64zm6.314-7.344h1.28v1.344h.064c.533-1.024 1.381-1.536 2.544-1.536 1.013 0 1.803.379 2.368 1.136.576.757.864 1.819.864 3.184 0 1.365-.288 2.427-.864 3.184-.565.757-1.355 1.136-2.368 1.136-1.163 0-2.011-.512-2.544-1.536h-.064v4.544h-1.28v-11.456zm3.392 7.312c.747 0 1.323-.224 1.728-.672.416-.459.624-1.061.624-1.808v-1.408c0-.747-.208-1.344-.624-1.792-.405-.459-.981-.688-1.728-.688-.288 0-.56.037-.816.112-.256.075-.48.187-.672.336a1.585 1.585 0 00-.464.528c-.107.203-.16.443-.16.72v2.976c0 .277.053.523.16.736.117.203.272.379.464.528.192.139.416.245.672.32.256.075.528.112.816.112zm9.626 1.136a4.112 4.112 0 01-1.616-.304 3.527 3.527 0 01-1.216-.864 4.122 4.122 0 01-.768-1.36 5.498 5.498 0 01-.272-1.776c0-.661.091-1.259.272-1.792.192-.533.453-.987.784-1.36a3.315 3.315 0 011.184-.88 3.868 3.868 0 011.552-.304c.555 0 1.056.101 1.504.304.459.203.848.485 1.168.848.32.352.565.773.736 1.264.171.491.256 1.029.256 1.616v.608h-6.112v.384c0 .363.059.699.176 1.008.117.309.283.576.496.8.224.224.491.4.8.528.32.117.672.176 1.056.176.555 0 1.035-.128 1.44-.384s.715-.608.928-1.056l.944.64c-.245.555-.656 1.013-1.232 1.376-.565.352-1.259.528-2.08.528zm-.08-7.584a2.453 2.453 0 00-1.76.72 2.582 2.582 0 00-.512.8 2.698 2.698 0 00-.176.992v.112h4.736v-.176c0-.363-.059-.693-.176-.992a2.142 2.142 0 00-.464-.768 1.848 1.848 0 00-.72-.512 2.365 2.365 0 00-.928-.176zm5.962 6.304h2.416v-6.08h-2.416v-1.088h3.696v2.08h.08c.17-.651.49-1.157.96-1.52.48-.373 1.088-.56 1.824-.56h1.152v1.28h-1.552c-.736 0-1.334.213-1.792.64-.448.427-.672.987-.672 1.68v3.568h3.2v1.088h-6.896v-1.088z" fill="#222"/></g></g><defs><clipPath id="clip0"><path fill="#fff" d="M.094 0h424v424h-424z"/></clipPath><clipPath id="clip1"><path fill="#fff" d="M0 0h350v424H0z"/></clipPath></defs></svg>