<svg width="23" height="23" viewBox="0 0 23 23" fill="none" xmlns="http://www.w3.org/2000/svg">
<path d="M20.3401 0.189941H3.05441C2.42926 0.189941 1.82971 0.438283 1.38766 0.880333C0.945607 1.32238 0.697266 1.92193 0.697266 2.54708L0.697266 19.8328C0.697266 20.458 0.945607 21.0575 1.38766 21.4995C1.82971 21.9416 2.42926 22.1899 3.05441 22.1899H9.79436V14.7104H6.70061V11.1899H9.79436V8.50673C9.79436 5.45472 11.6113 3.76887 14.3942 3.76887C15.727 3.76887 17.1207 4.00655 17.1207 4.00655V7.00208H15.5851C14.0721 7.00208 13.6002 7.94101 13.6002 8.904V11.1899H16.9778L16.4376 14.7104H13.6002V22.1899H20.3401C20.9653 22.1899 21.5648 21.9416 22.0069 21.4995C22.4489 21.0575 22.6973 20.458 22.6973 19.8328V2.54708C22.6973 1.92193 22.4489 1.32238 22.0069 0.880333C21.5648 0.438283 20.9653 0.189941 20.3401 0.189941Z" fill="#222222"/>
</svg>
