<svg width="37" height="63" viewBox="0 0 37 63" fill="none" xmlns="http://www.w3.org/2000/svg">
<g id="mobile">
<path id="Vector" d="M34.7368 50.1614H2.23682" stroke="black" stroke-width="4" stroke-linecap="round" stroke-linejoin="round"/>
<path id="Vector_2" d="M18.4868 53.2864C18.116 53.2864 17.7535 53.3963 17.4451 53.6024C17.1368 53.8084 16.8965 54.1012 16.7545 54.4438C16.6126 54.7865 16.5755 55.1635 16.6478 55.5272C16.7202 55.8909 16.8988 56.225 17.161 56.4872C17.4232 56.7494 17.7573 56.928 18.121 57.0003C18.4847 57.0727 18.8617 57.0356 19.2043 56.8937C19.547 56.7517 19.8398 56.5114 20.0458 56.2031C20.2519 55.8947 20.3618 55.5322 20.3618 55.1614C20.3621 54.9151 20.3139 54.6711 20.2198 54.4435C20.1257 54.2158 19.9876 54.009 19.8134 53.8348C19.6392 53.6606 19.4324 53.5225 19.2047 53.4284C18.9771 53.3343 18.7331 53.286 18.4868 53.2864Z" fill="black"/>
<path id="Vector_3" d="M29.7368 2.66138H7.23682C4.47539 2.66138 2.23682 4.89995 2.23682 7.66138V55.1614C2.23682 57.9228 4.47539 60.1614 7.23682 60.1614H29.7368C32.4982 60.1614 34.7368 57.9228 34.7368 55.1614V7.66138C34.7368 4.89995 32.4982 2.66138 29.7368 2.66138Z" stroke="black" stroke-width="4" stroke-linecap="round" stroke-linejoin="round"/>
</g>
</svg>
