<svg width="425" height="424" viewBox="0 0 425 424" fill="none" xmlns="http://www.w3.org/2000/svg">
<g clip-path="url(#clip0)">
<path d="M230.188 8.57897C336.096 9.65181 421.62 95.8383 421.62 202C421.62 259.499 396.534 311.136 356.704 346.569L230.188 201.251V8.57897Z" stroke="#222222" stroke-width="4"/>
<path d="M299.265 158.688C301.601 158.688 303.345 158.176 304.497 157.152C305.681 156.096 306.273 154.752 306.273 153.12V152.784C306.273 150.992 305.697 149.648 304.545 148.752C303.425 147.856 301.953 147.408 300.129 147.408C298.337 147.408 296.881 147.808 295.761 148.608C294.673 149.376 293.777 150.4 293.073 151.68L290.049 149.376C290.465 148.704 290.977 148.048 291.585 147.408C292.193 146.736 292.897 146.144 293.697 145.632C294.529 145.12 295.473 144.704 296.529 144.384C297.617 144.064 298.849 143.904 300.225 143.904C301.665 143.904 303.009 144.096 304.257 144.48C305.505 144.832 306.593 145.376 307.521 146.112C308.449 146.816 309.169 147.696 309.681 148.752C310.225 149.808 310.497 151.008 310.497 152.352C310.497 153.44 310.321 154.416 309.969 155.28C309.649 156.144 309.185 156.896 308.577 157.536C308.001 158.176 307.313 158.72 306.513 159.168C305.713 159.616 304.865 159.952 303.969 160.176V160.368C304.897 160.56 305.793 160.88 306.657 161.328C307.521 161.744 308.289 162.304 308.961 163.008C309.633 163.68 310.161 164.512 310.545 165.504C310.961 166.464 311.169 167.568 311.169 168.816C311.169 170.256 310.881 171.584 310.305 172.8C309.761 173.984 308.977 175.008 307.953 175.872C306.961 176.704 305.745 177.36 304.305 177.84C302.897 178.32 301.329 178.56 299.601 178.56C298.129 178.56 296.817 178.4 295.665 178.08C294.545 177.76 293.537 177.328 292.641 176.784C291.777 176.24 291.009 175.632 290.337 174.96C289.697 174.288 289.121 173.584 288.609 172.848L291.633 170.544C292.081 171.216 292.545 171.824 293.025 172.368C293.505 172.912 294.049 173.392 294.657 173.808C295.297 174.192 296.017 174.496 296.817 174.72C297.617 174.944 298.545 175.056 299.601 175.056C301.969 175.056 303.777 174.512 305.025 173.424C306.305 172.336 306.945 170.784 306.945 168.768V168.384C306.945 166.4 306.321 164.864 305.073 163.776C303.857 162.688 302.017 162.144 299.553 162.144H295.569V158.688H299.265ZM329.486 178.56C327.438 178.56 325.678 178.176 324.206 177.408C322.734 176.608 321.518 175.472 320.558 174C319.598 172.528 318.894 170.72 318.446 168.576C317.998 166.432 317.774 163.984 317.774 161.232C317.774 158.512 317.998 156.08 318.446 153.936C318.894 151.76 319.598 149.936 320.558 148.464C321.518 146.992 322.734 145.872 324.206 145.104C325.678 144.304 327.438 143.904 329.486 143.904C331.534 143.904 333.294 144.304 334.766 145.104C336.238 145.872 337.454 146.992 338.414 148.464C339.374 149.936 340.078 151.76 340.526 153.936C340.974 156.08 341.198 158.512 341.198 161.232C341.198 163.984 340.974 166.432 340.526 168.576C340.078 170.72 339.374 172.528 338.414 174C337.454 175.472 336.238 176.608 334.766 177.408C333.294 178.176 331.534 178.56 329.486 178.56ZM329.486 175.056C330.83 175.056 331.982 174.8 332.942 174.288C333.902 173.744 334.67 172.992 335.246 172.032C335.854 171.072 336.302 169.92 336.59 168.576C336.878 167.2 337.022 165.664 337.022 163.968V158.496C337.022 156.832 336.878 155.312 336.59 153.936C336.302 152.56 335.854 151.392 335.246 150.432C334.67 149.472 333.902 148.736 332.942 148.224C331.982 147.68 330.83 147.408 329.486 147.408C328.142 147.408 326.99 147.68 326.03 148.224C325.07 148.736 324.286 149.472 323.678 150.432C323.102 151.392 322.67 152.56 322.382 153.936C322.094 155.312 321.95 156.832 321.95 158.496V163.968C321.95 165.664 322.094 167.2 322.382 168.576C322.67 169.92 323.102 171.072 323.678 172.032C324.286 172.992 325.07 173.744 326.03 174.288C326.99 174.8 328.142 175.056 329.486 175.056ZM329.486 164.064C328.366 164.064 327.582 163.84 327.134 163.392C326.718 162.944 326.51 162.4 326.51 161.76V160.704C326.51 160.064 326.718 159.52 327.134 159.072C327.582 158.624 328.366 158.4 329.486 158.4C330.606 158.4 331.374 158.624 331.79 159.072C332.238 159.52 332.462 160.064 332.462 160.704V161.76C332.462 162.4 332.238 162.944 331.79 163.392C331.374 163.84 330.606 164.064 329.486 164.064ZM346.572 172.288C345.868 172.288 345.292 172.053 344.844 171.584C344.406 171.104 344.188 170.395 344.188 169.456C344.188 168.517 344.406 167.813 344.844 167.344C345.292 166.864 345.868 166.624 346.572 166.624C347.276 166.624 347.846 166.864 348.284 167.344C348.732 167.813 348.956 168.517 348.956 169.456C348.956 170.395 348.732 171.104 348.284 171.584C347.846 172.053 347.276 172.288 346.572 172.288ZM346.572 171.424C346.956 171.424 347.265 171.291 347.5 171.024C347.745 170.757 347.868 170.368 347.868 169.856V169.056C347.868 168.544 347.745 168.155 347.5 167.888C347.265 167.621 346.956 167.488 346.572 167.488C346.188 167.488 345.873 167.621 345.628 167.888C345.393 168.155 345.276 168.544 345.276 169.056V169.856C345.276 170.368 345.393 170.757 345.628 171.024C345.873 171.291 346.188 171.424 346.572 171.424ZM352.028 166.816H353.18L350.62 171.616H349.468L352.028 166.816ZM346.716 173.184H347.868L345.308 177.984H344.156L346.716 173.184ZM350.764 178.176C350.06 178.176 349.484 177.941 349.036 177.472C348.598 176.992 348.38 176.283 348.38 175.344C348.38 174.405 348.598 173.701 349.036 173.232C349.484 172.752 350.06 172.512 350.764 172.512C351.468 172.512 352.038 172.752 352.476 173.232C352.924 173.701 353.148 174.405 353.148 175.344C353.148 176.283 352.924 176.992 352.476 177.472C352.038 177.941 351.468 178.176 350.764 178.176ZM350.764 177.312C351.148 177.312 351.457 177.179 351.692 176.912C351.937 176.645 352.06 176.256 352.06 175.744V174.944C352.06 174.432 351.937 174.043 351.692 173.776C351.457 173.509 351.148 173.376 350.764 173.376C350.38 173.376 350.065 173.509 349.82 173.776C349.585 174.043 349.468 174.432 349.468 174.944V175.744C349.468 176.256 349.585 176.645 349.82 176.912C350.065 177.179 350.38 177.312 350.764 177.312ZM287.905 186.816H290.945C292.3 186.816 293.297 187.291 293.937 188.24C294.588 189.179 294.913 190.565 294.913 192.4C294.913 194.245 294.588 195.637 293.937 196.576C293.297 197.515 292.3 197.984 290.945 197.984H287.905V186.816ZM290.913 197.152C291.927 197.152 292.673 196.8 293.153 196.096C293.644 195.381 293.889 194.389 293.889 193.12V191.68C293.889 190.411 293.644 189.424 293.153 188.72C292.673 188.005 291.927 187.648 290.913 187.648H288.865V197.152H290.913ZM300.827 198.176C299.675 198.176 298.768 197.803 298.107 197.056C297.456 196.299 297.131 195.237 297.131 193.872C297.131 193.189 297.216 192.581 297.387 192.048C297.558 191.504 297.798 191.051 298.107 190.688C298.427 190.315 298.811 190.032 299.259 189.84C299.707 189.637 300.203 189.536 300.747 189.536C301.302 189.536 301.798 189.637 302.235 189.84C302.672 190.032 303.04 190.309 303.339 190.672C303.648 191.035 303.883 191.467 304.043 191.968C304.203 192.469 304.283 193.024 304.283 193.632V194.032H298.091V194.432C298.091 195.317 298.331 196.032 298.811 196.576C299.291 197.109 299.963 197.376 300.827 197.376C301.435 197.376 301.952 197.237 302.379 196.96C302.816 196.683 303.152 196.272 303.387 195.728L304.075 196.16C303.83 196.768 303.43 197.259 302.875 197.632C302.32 197.995 301.638 198.176 300.827 198.176ZM300.747 190.304C300.342 190.304 299.974 190.379 299.643 190.528C299.323 190.667 299.046 190.864 298.811 191.12C298.587 191.376 298.411 191.685 298.283 192.048C298.155 192.411 298.091 192.811 298.091 193.248V193.344H303.307V193.216C303.307 192.32 303.078 191.611 302.619 191.088C302.171 190.565 301.547 190.304 300.747 190.304ZM310.469 198.176C309.637 198.176 308.911 198.037 308.293 197.76C307.685 197.472 307.157 197.072 306.709 196.56L307.333 196.016C307.738 196.485 308.191 196.837 308.693 197.072C309.194 197.296 309.791 197.408 310.485 197.408C311.21 197.408 311.797 197.269 312.245 196.992C312.703 196.715 312.933 196.288 312.933 195.712C312.933 195.456 312.885 195.248 312.789 195.088C312.703 194.917 312.581 194.779 312.421 194.672C312.261 194.565 312.074 194.485 311.861 194.432C311.647 194.368 311.413 194.32 311.157 194.288L309.877 194.112C309.557 194.069 309.231 194.011 308.901 193.936C308.581 193.851 308.287 193.728 308.021 193.568C307.765 193.408 307.551 193.195 307.381 192.928C307.221 192.661 307.141 192.32 307.141 191.904C307.141 191.499 307.221 191.147 307.381 190.848C307.541 190.549 307.765 190.304 308.053 190.112C308.341 189.92 308.677 189.776 309.061 189.68C309.455 189.584 309.877 189.536 310.325 189.536C311.093 189.536 311.738 189.664 312.261 189.92C312.794 190.165 313.242 190.475 313.605 190.848L312.997 191.424C312.879 191.296 312.741 191.168 312.581 191.04C312.431 190.901 312.245 190.779 312.021 190.672C311.807 190.565 311.557 190.48 311.269 190.416C310.981 190.341 310.65 190.304 310.277 190.304C309.573 190.304 309.023 190.432 308.629 190.688C308.245 190.944 308.053 191.328 308.053 191.84C308.053 192.096 308.095 192.309 308.181 192.48C308.277 192.64 308.405 192.773 308.565 192.88C308.725 192.987 308.911 193.072 309.125 193.136C309.338 193.189 309.567 193.232 309.813 193.264L311.109 193.456C311.429 193.509 311.749 193.579 312.069 193.664C312.399 193.739 312.693 193.856 312.949 194.016C313.215 194.176 313.429 194.389 313.589 194.656C313.749 194.912 313.829 195.248 313.829 195.664C313.829 196.08 313.743 196.443 313.573 196.752C313.413 197.061 313.183 197.323 312.885 197.536C312.597 197.749 312.245 197.909 311.829 198.016C311.413 198.123 310.959 198.176 310.469 198.176ZM320.398 187.52C320.11 187.52 319.902 187.461 319.774 187.344C319.657 187.216 319.598 187.061 319.598 186.88V186.672C319.598 186.491 319.657 186.341 319.774 186.224C319.902 186.096 320.11 186.032 320.398 186.032C320.686 186.032 320.889 186.096 321.006 186.224C321.134 186.341 321.198 186.491 321.198 186.672V186.88C321.198 187.061 321.134 187.216 321.006 187.344C320.889 187.461 320.686 187.52 320.398 187.52ZM316.846 197.2H319.95V190.512H316.846V189.728H320.862V197.2H323.758V197.984H316.846V197.2ZM333.544 198.96C333.544 199.792 333.203 200.4 332.52 200.784C331.838 201.179 330.835 201.376 329.512 201.376C328.232 201.376 327.31 201.195 326.744 200.832C326.179 200.469 325.896 199.963 325.896 199.312C325.896 198.843 326.024 198.469 326.28 198.192C326.536 197.925 326.894 197.723 327.352 197.584V197.456C326.83 197.253 326.568 196.88 326.568 196.336C326.568 195.931 326.707 195.621 326.984 195.408C327.262 195.184 327.603 195.019 328.008 194.912V194.848C327.518 194.635 327.134 194.315 326.856 193.888C326.59 193.461 326.456 192.949 326.456 192.352C326.456 191.936 326.526 191.557 326.664 191.216C326.814 190.864 327.016 190.565 327.272 190.32C327.539 190.064 327.859 189.872 328.232 189.744C328.606 189.605 329.022 189.536 329.48 189.536C330.142 189.536 330.707 189.675 331.176 189.952V189.616C331.176 189.36 331.235 189.157 331.352 189.008C331.48 188.848 331.683 188.768 331.96 188.768H333.576V189.568H331.688V190.32C331.955 190.565 332.158 190.859 332.296 191.2C332.446 191.541 332.52 191.925 332.52 192.352C332.52 192.768 332.446 193.147 332.296 193.488C332.158 193.829 331.955 194.128 331.688 194.384C331.422 194.629 331.102 194.821 330.728 194.96C330.355 195.088 329.939 195.152 329.48 195.152C329.331 195.152 329.192 195.147 329.064 195.136C328.936 195.125 328.798 195.104 328.648 195.072C328.307 195.157 328.008 195.285 327.752 195.456C327.496 195.627 327.368 195.856 327.368 196.144C327.368 196.624 327.816 196.864 328.712 196.864H330.68C331.683 196.864 332.408 197.056 332.856 197.44C333.315 197.813 333.544 198.32 333.544 198.96ZM332.68 198.992C332.68 198.597 332.531 198.283 332.232 198.048C331.944 197.824 331.427 197.712 330.68 197.712H327.976C327.603 197.829 327.31 198 327.096 198.224C326.894 198.459 326.792 198.763 326.792 199.136C326.792 199.573 326.968 199.931 327.32 200.208C327.683 200.496 328.227 200.64 328.952 200.64H330.024C330.846 200.64 331.491 200.501 331.96 200.224C332.44 199.957 332.68 199.547 332.68 198.992ZM329.48 194.432C330.174 194.432 330.691 194.261 331.032 193.92C331.384 193.579 331.56 193.141 331.56 192.608V192.08C331.56 191.536 331.384 191.099 331.032 190.768C330.691 190.427 330.174 190.256 329.48 190.256C328.798 190.256 328.28 190.427 327.928 190.768C327.587 191.099 327.416 191.536 327.416 192.08V192.608C327.416 193.141 327.592 193.579 327.944 193.92C328.296 194.261 328.808 194.432 329.48 194.432ZM336.018 197.984V189.728H336.93V191.008H336.994C337.154 190.624 337.421 190.283 337.794 189.984C338.178 189.685 338.717 189.536 339.41 189.536C340.306 189.536 340.999 189.808 341.49 190.352C341.991 190.885 342.242 191.653 342.242 192.656V197.984H341.33V192.816C341.33 191.963 341.143 191.339 340.77 190.944C340.407 190.549 339.874 190.352 339.17 190.352C338.882 190.352 338.605 190.389 338.338 190.464C338.071 190.539 337.831 190.651 337.618 190.8C337.415 190.949 337.25 191.141 337.122 191.376C336.994 191.6 336.93 191.867 336.93 192.176V197.984H336.018ZM348.796 198.176C347.644 198.176 346.737 197.803 346.076 197.056C345.425 196.299 345.1 195.237 345.1 193.872C345.1 193.189 345.185 192.581 345.356 192.048C345.526 191.504 345.766 191.051 346.076 190.688C346.396 190.315 346.78 190.032 347.228 189.84C347.676 189.637 348.172 189.536 348.716 189.536C349.27 189.536 349.766 189.637 350.204 189.84C350.641 190.032 351.009 190.309 351.308 190.672C351.617 191.035 351.852 191.467 352.012 191.968C352.172 192.469 352.252 193.024 352.252 193.632V194.032H346.06V194.432C346.06 195.317 346.3 196.032 346.78 196.576C347.26 197.109 347.932 197.376 348.796 197.376C349.404 197.376 349.921 197.237 350.348 196.96C350.785 196.683 351.121 196.272 351.356 195.728L352.044 196.16C351.798 196.768 351.398 197.259 350.844 197.632C350.289 197.995 349.606 198.176 348.796 198.176ZM348.716 190.304C348.31 190.304 347.942 190.379 347.612 190.528C347.292 190.667 347.014 190.864 346.78 191.12C346.556 191.376 346.38 191.685 346.252 192.048C346.124 192.411 346.06 192.811 346.06 193.248V193.344H351.276V193.216C351.276 192.32 351.046 191.611 350.588 191.088C350.14 190.565 349.516 190.304 348.716 190.304ZM354.709 197.2H357.301V190.512H354.709V189.728H358.213V191.616H358.277C358.459 191.04 358.768 190.581 359.205 190.24C359.653 189.899 360.24 189.728 360.965 189.728H362.389V190.624H360.693C359.947 190.624 359.344 190.848 358.885 191.296C358.437 191.733 358.213 192.325 358.213 193.072V197.2H361.573V197.984H354.709V197.2Z" fill="#222222"/>
<g clip-path="url(#clip1)">
<path d="M209.575 211.999V212.747L210.066 213.312L347.58 371.263C310.987 402.542 263.489 421.429 211.575 421.429C95.9097 421.429 2.14453 327.664 2.14453 211.999C2.14453 97.0012 94.8307 3.65165 209.575 2.5782V211.999Z" stroke="#222222" stroke-width="4"/>
<path d="M95.6946 223.984L108.799 193.936H94.1106V200.176H90.5106V190.48H112.879V194.032L100.015 223.984H95.6946ZM130.572 224.56C128.524 224.56 126.764 224.176 125.292 223.408C123.82 222.608 122.604 221.472 121.644 220C120.684 218.528 119.98 216.72 119.532 214.576C119.084 212.432 118.86 209.984 118.86 207.232C118.86 204.512 119.084 202.08 119.532 199.936C119.98 197.76 120.684 195.936 121.644 194.464C122.604 192.992 123.82 191.872 125.292 191.104C126.764 190.304 128.524 189.904 130.572 189.904C132.62 189.904 134.38 190.304 135.852 191.104C137.324 191.872 138.54 192.992 139.5 194.464C140.46 195.936 141.164 197.76 141.612 199.936C142.06 202.08 142.284 204.512 142.284 207.232C142.284 209.984 142.06 212.432 141.612 214.576C141.164 216.72 140.46 218.528 139.5 220C138.54 221.472 137.324 222.608 135.852 223.408C134.38 224.176 132.62 224.56 130.572 224.56ZM130.572 221.056C131.916 221.056 133.068 220.8 134.028 220.288C134.988 219.744 135.756 218.992 136.332 218.032C136.94 217.072 137.388 215.92 137.676 214.576C137.964 213.2 138.108 211.664 138.108 209.968V204.496C138.108 202.832 137.964 201.312 137.676 199.936C137.388 198.56 136.94 197.392 136.332 196.432C135.756 195.472 134.988 194.736 134.028 194.224C133.068 193.68 131.916 193.408 130.572 193.408C129.228 193.408 128.076 193.68 127.116 194.224C126.156 194.736 125.372 195.472 124.764 196.432C124.188 197.392 123.756 198.56 123.468 199.936C123.18 201.312 123.036 202.832 123.036 204.496V209.968C123.036 211.664 123.18 213.2 123.468 214.576C123.756 215.92 124.188 217.072 124.764 218.032C125.372 218.992 126.156 219.744 127.116 220.288C128.076 220.8 129.228 221.056 130.572 221.056ZM130.572 210.064C129.452 210.064 128.668 209.84 128.22 209.392C127.804 208.944 127.596 208.4 127.596 207.76V206.704C127.596 206.064 127.804 205.52 128.22 205.072C128.668 204.624 129.452 204.4 130.572 204.4C131.692 204.4 132.46 204.624 132.876 205.072C133.324 205.52 133.548 206.064 133.548 206.704V207.76C133.548 208.4 133.324 208.944 132.876 209.392C132.46 209.84 131.692 210.064 130.572 210.064ZM147.657 218.288C146.953 218.288 146.377 218.053 145.929 217.584C145.492 217.104 145.273 216.395 145.273 215.456C145.273 214.517 145.492 213.813 145.929 213.344C146.377 212.864 146.953 212.624 147.657 212.624C148.361 212.624 148.932 212.864 149.369 213.344C149.817 213.813 150.041 214.517 150.041 215.456C150.041 216.395 149.817 217.104 149.369 217.584C148.932 218.053 148.361 218.288 147.657 218.288ZM147.657 217.424C148.041 217.424 148.35 217.291 148.585 217.024C148.83 216.757 148.953 216.368 148.953 215.856V215.056C148.953 214.544 148.83 214.155 148.585 213.888C148.35 213.621 148.041 213.488 147.657 213.488C147.273 213.488 146.958 213.621 146.713 213.888C146.478 214.155 146.361 214.544 146.361 215.056V215.856C146.361 216.368 146.478 216.757 146.713 217.024C146.958 217.291 147.273 217.424 147.657 217.424ZM153.113 212.816H154.265L151.705 217.616H150.553L153.113 212.816ZM147.801 219.184H148.953L146.393 223.984H145.241L147.801 219.184ZM151.849 224.176C151.145 224.176 150.569 223.941 150.121 223.472C149.684 222.992 149.465 222.283 149.465 221.344C149.465 220.405 149.684 219.701 150.121 219.232C150.569 218.752 151.145 218.512 151.849 218.512C152.553 218.512 153.124 218.752 153.561 219.232C154.009 219.701 154.233 220.405 154.233 221.344C154.233 222.283 154.009 222.992 153.561 223.472C153.124 223.941 152.553 224.176 151.849 224.176ZM151.849 223.312C152.233 223.312 152.542 223.179 152.777 222.912C153.022 222.645 153.145 222.256 153.145 221.744V220.944C153.145 220.432 153.022 220.043 152.777 219.776C152.542 219.509 152.233 219.376 151.849 219.376C151.465 219.376 151.15 219.509 150.905 219.776C150.67 220.043 150.553 220.432 150.553 220.944V221.744C150.553 222.256 150.67 222.645 150.905 222.912C151.15 223.179 151.465 223.312 151.849 223.312ZM88.8306 243.984V232.816H95.8706V233.984H90.1746V237.744H95.3906V238.912H90.1746V243.984H88.8306ZM98.2164 242.896H100.632V236.816H98.2164V235.728H101.912V237.808H101.992C102.163 237.157 102.483 236.651 102.952 236.288C103.432 235.915 104.04 235.728 104.776 235.728H105.928V237.008H104.376C103.64 237.008 103.043 237.221 102.584 237.648C102.136 238.075 101.912 238.635 101.912 239.328V242.896H105.112V243.984H98.2164V242.896ZM111.378 244.176C110.802 244.176 110.279 244.075 109.81 243.872C109.351 243.669 108.957 243.381 108.626 243.008C108.306 242.624 108.061 242.171 107.89 241.648C107.719 241.115 107.634 240.517 107.634 239.856C107.634 239.205 107.719 238.613 107.89 238.08C108.061 237.547 108.306 237.093 108.626 236.72C108.957 236.336 109.351 236.043 109.81 235.84C110.279 235.637 110.802 235.536 111.378 235.536C111.954 235.536 112.471 235.637 112.93 235.84C113.399 236.043 113.794 236.336 114.114 236.72C114.445 237.093 114.695 237.547 114.866 238.08C115.037 238.613 115.122 239.205 115.122 239.856C115.122 240.517 115.037 241.115 114.866 241.648C114.695 242.171 114.445 242.624 114.114 243.008C113.794 243.381 113.399 243.669 112.93 243.872C112.471 244.075 111.954 244.176 111.378 244.176ZM111.378 243.072C112.093 243.072 112.669 242.859 113.106 242.432C113.543 242.005 113.762 241.344 113.762 240.448V239.264C113.762 238.368 113.543 237.707 113.106 237.28C112.669 236.853 112.093 236.64 111.378 236.64C110.663 236.64 110.087 236.853 109.65 237.28C109.213 237.707 108.994 238.368 108.994 239.264V240.448C108.994 241.344 109.213 242.005 109.65 242.432C110.087 242.859 110.663 243.072 111.378 243.072ZM117.74 243.984V235.728H119.02V237.072H119.084C119.169 236.869 119.276 236.677 119.404 236.496C119.532 236.304 119.687 236.139 119.868 236C120.06 235.861 120.284 235.749 120.54 235.664C120.796 235.579 121.095 235.536 121.436 235.536C122.3 235.536 122.993 235.813 123.516 236.368C124.039 236.912 124.3 237.685 124.3 238.688V243.984H123.02V238.912C123.02 238.155 122.855 237.595 122.524 237.232C122.193 236.859 121.708 236.672 121.068 236.672C120.812 236.672 120.561 236.704 120.316 236.768C120.071 236.832 119.852 236.928 119.66 237.056C119.468 237.184 119.313 237.349 119.196 237.552C119.079 237.755 119.02 237.989 119.02 238.256V243.984H117.74ZM130.966 243.984C130.336 243.984 129.872 243.808 129.574 243.456C129.286 243.104 129.142 242.651 129.142 242.096V236.816H126.39V235.728H128.438C128.715 235.728 128.907 235.675 129.014 235.568C129.131 235.451 129.19 235.253 129.19 234.976V232.816H130.422V235.728H134.182V236.816H130.422V242.896H134.182V243.984H130.966ZM137.839 239.792V238.448H142.479V239.792H137.839ZM146.393 243.984V232.816H153.273V233.984H147.737V237.744H153.081V238.912H147.737V242.816H153.273V243.984H146.393ZM156.115 243.984V235.728H157.395V237.072H157.459C157.544 236.869 157.651 236.677 157.779 236.496C157.907 236.304 158.062 236.139 158.243 236C158.435 235.861 158.659 235.749 158.915 235.664C159.171 235.579 159.47 235.536 159.811 235.536C160.675 235.536 161.368 235.813 161.891 236.368C162.414 236.912 162.675 237.685 162.675 238.688V243.984H161.395V238.912C161.395 238.155 161.23 237.595 160.899 237.232C160.568 236.859 160.083 236.672 159.443 236.672C159.187 236.672 158.936 236.704 158.691 236.768C158.446 236.832 158.227 236.928 158.035 237.056C157.843 237.184 157.688 237.349 157.571 237.552C157.454 237.755 157.395 237.989 157.395 238.256V243.984H156.115ZM170.941 242.64H170.877C170.343 243.664 169.495 244.176 168.333 244.176C167.319 244.176 166.525 243.797 165.949 243.04C165.383 242.283 165.101 241.221 165.101 239.856C165.101 238.491 165.383 237.429 165.949 236.672C166.525 235.915 167.319 235.536 168.333 235.536C169.495 235.536 170.343 236.048 170.877 237.072H170.941V232.144H172.221V243.984H170.941V242.64ZM168.829 243.04C169.117 243.04 169.389 243.003 169.645 242.928C169.901 242.853 170.125 242.747 170.317 242.608C170.509 242.459 170.658 242.283 170.765 242.08C170.882 241.867 170.941 241.621 170.941 241.344V238.368C170.941 238.091 170.882 237.851 170.765 237.648C170.658 237.435 170.509 237.259 170.317 237.12C170.125 236.971 169.901 236.859 169.645 236.784C169.389 236.709 169.117 236.672 168.829 236.672C168.082 236.672 167.501 236.901 167.085 237.36C166.679 237.808 166.477 238.405 166.477 239.152V240.56C166.477 241.307 166.679 241.909 167.085 242.368C167.501 242.816 168.082 243.04 168.829 243.04ZM88.9106 252.816H92.0306C93.396 252.816 94.4146 253.285 95.0866 254.224C95.7586 255.163 96.0946 256.555 96.0946 258.4C96.0946 260.245 95.7586 261.637 95.0866 262.576C94.4146 263.515 93.396 263.984 92.0306 263.984H88.9106V252.816ZM91.9666 262.816C92.8626 262.816 93.5346 262.507 93.9826 261.888C94.4413 261.269 94.6706 260.395 94.6706 259.264V257.536C94.6706 256.405 94.4413 255.531 93.9826 254.912C93.5346 254.293 92.8626 253.984 91.9666 253.984H90.2546V262.816H91.9666ZM101.928 264.176C101.331 264.176 100.792 264.075 100.312 263.872C99.843 263.669 99.4377 263.381 99.0964 263.008C98.7657 262.624 98.5097 262.171 98.3284 261.648C98.147 261.115 98.0564 260.523 98.0564 259.872C98.0564 259.211 98.147 258.613 98.3284 258.08C98.5204 257.547 98.7817 257.093 99.1124 256.72C99.443 256.336 99.8377 256.043 100.296 255.84C100.766 255.637 101.283 255.536 101.848 255.536C102.403 255.536 102.904 255.637 103.352 255.84C103.811 256.043 104.2 256.325 104.52 256.688C104.84 257.04 105.086 257.461 105.256 257.952C105.427 258.443 105.512 258.981 105.512 259.568V260.176H99.4004V260.56C99.4004 260.923 99.459 261.259 99.5764 261.568C99.6937 261.877 99.859 262.144 100.072 262.368C100.296 262.592 100.563 262.768 100.872 262.896C101.192 263.013 101.544 263.072 101.928 263.072C102.483 263.072 102.963 262.944 103.368 262.688C103.774 262.432 104.083 262.08 104.296 261.632L105.24 262.272C104.995 262.827 104.584 263.285 104.008 263.648C103.443 264 102.75 264.176 101.928 264.176ZM101.848 256.592C101.496 256.592 101.171 256.656 100.872 256.784C100.574 256.912 100.312 257.088 100.088 257.312C99.875 257.536 99.7044 257.803 99.5764 258.112C99.459 258.411 99.4004 258.741 99.4004 259.104V259.216H104.136V259.04C104.136 258.677 104.078 258.347 103.96 258.048C103.854 257.749 103.699 257.493 103.496 257.28C103.304 257.056 103.064 256.885 102.776 256.768C102.499 256.651 102.19 256.592 101.848 256.592ZM110.562 263.984L107.602 255.728H108.898L110.082 259.184L111.362 262.912H111.426L112.706 259.184L113.89 255.728H115.154L112.194 263.984H110.562ZM121.116 264.176C120.519 264.176 119.98 264.075 119.5 263.872C119.031 263.669 118.625 263.381 118.284 263.008C117.953 262.624 117.697 262.171 117.516 261.648C117.335 261.115 117.244 260.523 117.244 259.872C117.244 259.211 117.335 258.613 117.516 258.08C117.708 257.547 117.969 257.093 118.3 256.72C118.631 256.336 119.025 256.043 119.484 255.84C119.953 255.637 120.471 255.536 121.036 255.536C121.591 255.536 122.092 255.637 122.54 255.84C122.999 256.043 123.388 256.325 123.708 256.688C124.028 257.04 124.273 257.461 124.444 257.952C124.615 258.443 124.7 258.981 124.7 259.568V260.176H118.588V260.56C118.588 260.923 118.647 261.259 118.764 261.568C118.881 261.877 119.047 262.144 119.26 262.368C119.484 262.592 119.751 262.768 120.06 262.896C120.38 263.013 120.732 263.072 121.116 263.072C121.671 263.072 122.151 262.944 122.556 262.688C122.961 262.432 123.271 262.08 123.484 261.632L124.428 262.272C124.183 262.827 123.772 263.285 123.196 263.648C122.631 264 121.937 264.176 121.116 264.176ZM121.036 256.592C120.684 256.592 120.359 256.656 120.06 256.784C119.761 256.912 119.5 257.088 119.276 257.312C119.063 257.536 118.892 257.803 118.764 258.112C118.647 258.411 118.588 258.741 118.588 259.104V259.216H123.324V259.04C123.324 258.677 123.265 258.347 123.148 258.048C123.041 257.749 122.887 257.493 122.684 257.28C122.492 257.056 122.252 256.885 121.964 256.768C121.687 256.651 121.377 256.592 121.036 256.592ZM127.046 262.896H129.926V253.232H127.046V252.144H131.206V262.896H134.086V263.984H127.046V262.896ZM140.159 264.176C139.583 264.176 139.061 264.075 138.591 263.872C138.133 263.669 137.738 263.381 137.407 263.008C137.087 262.624 136.842 262.171 136.671 261.648C136.501 261.115 136.415 260.517 136.415 259.856C136.415 259.205 136.501 258.613 136.671 258.08C136.842 257.547 137.087 257.093 137.407 256.72C137.738 256.336 138.133 256.043 138.591 255.84C139.061 255.637 139.583 255.536 140.159 255.536C140.735 255.536 141.253 255.637 141.711 255.84C142.181 256.043 142.575 256.336 142.895 256.72C143.226 257.093 143.477 257.547 143.647 258.08C143.818 258.613 143.903 259.205 143.903 259.856C143.903 260.517 143.818 261.115 143.647 261.648C143.477 262.171 143.226 262.624 142.895 263.008C142.575 263.381 142.181 263.669 141.711 263.872C141.253 264.075 140.735 264.176 140.159 264.176ZM140.159 263.072C140.874 263.072 141.45 262.859 141.887 262.432C142.325 262.005 142.543 261.344 142.543 260.448V259.264C142.543 258.368 142.325 257.707 141.887 257.28C141.45 256.853 140.874 256.64 140.159 256.64C139.445 256.64 138.869 256.853 138.431 257.28C137.994 257.707 137.775 258.368 137.775 259.264V260.448C137.775 261.344 137.994 262.005 138.431 262.432C138.869 262.859 139.445 263.072 140.159 263.072ZM146.473 255.728H147.753V257.072H147.817C148.35 256.048 149.198 255.536 150.361 255.536C151.374 255.536 152.164 255.915 152.729 256.672C153.305 257.429 153.593 258.491 153.593 259.856C153.593 261.221 153.305 262.283 152.729 263.04C152.164 263.797 151.374 264.176 150.361 264.176C149.198 264.176 148.35 263.664 147.817 262.64H147.753V267.184H146.473V255.728ZM149.865 263.04C150.612 263.04 151.188 262.816 151.593 262.368C152.009 261.909 152.217 261.307 152.217 260.56V259.152C152.217 258.405 152.009 257.808 151.593 257.36C151.188 256.901 150.612 256.672 149.865 256.672C149.577 256.672 149.305 256.709 149.049 256.784C148.793 256.859 148.569 256.971 148.377 257.12C148.185 257.259 148.03 257.435 147.913 257.648C147.806 257.851 147.753 258.091 147.753 258.368V261.344C147.753 261.621 147.806 261.867 147.913 262.08C148.03 262.283 148.185 262.459 148.377 262.608C148.569 262.747 148.793 262.853 149.049 262.928C149.305 263.003 149.577 263.04 149.865 263.04ZM159.491 264.176C158.894 264.176 158.355 264.075 157.875 263.872C157.406 263.669 157 263.381 156.659 263.008C156.328 262.624 156.072 262.171 155.891 261.648C155.71 261.115 155.619 260.523 155.619 259.872C155.619 259.211 155.71 258.613 155.891 258.08C156.083 257.547 156.344 257.093 156.675 256.72C157.006 256.336 157.4 256.043 157.859 255.84C158.328 255.637 158.846 255.536 159.411 255.536C159.966 255.536 160.467 255.637 160.915 255.84C161.374 256.043 161.763 256.325 162.083 256.688C162.403 257.04 162.648 257.461 162.819 257.952C162.99 258.443 163.075 258.981 163.075 259.568V260.176H156.963V260.56C156.963 260.923 157.022 261.259 157.139 261.568C157.256 261.877 157.422 262.144 157.635 262.368C157.859 262.592 158.126 262.768 158.435 262.896C158.755 263.013 159.107 263.072 159.491 263.072C160.046 263.072 160.526 262.944 160.931 262.688C161.336 262.432 161.646 262.08 161.859 261.632L162.803 262.272C162.558 262.827 162.147 263.285 161.571 263.648C161.006 264 160.312 264.176 159.491 264.176ZM159.411 256.592C159.059 256.592 158.734 256.656 158.435 256.784C158.136 256.912 157.875 257.088 157.651 257.312C157.438 257.536 157.267 257.803 157.139 258.112C157.022 258.411 156.963 258.741 156.963 259.104V259.216H161.699V259.04C161.699 258.677 161.64 258.347 161.523 258.048C161.416 257.749 161.262 257.493 161.059 257.28C160.867 257.056 160.627 256.885 160.339 256.768C160.062 256.651 159.752 256.592 159.411 256.592ZM165.373 262.896H167.789V256.816H165.373V255.728H169.069V257.808H169.149C169.319 257.157 169.639 256.651 170.109 256.288C170.589 255.915 171.197 255.728 171.933 255.728H173.085V257.008H171.533C170.797 257.008 170.199 257.221 169.741 257.648C169.293 258.075 169.069 258.635 169.069 259.328V262.896H172.269V263.984H165.373V262.896Z" fill="#222222"/>
</g>
</g>
<defs>
<clipPath id="clip0">
<rect x="0.0942383" width="424" height="424" fill="white"/>
</clipPath>
<clipPath id="clip1">
<rect width="350" height="424" fill="white"/>
</clipPath>
</defs>
</svg>
